<svg xmlns="http://www.w3.org/2000/svg" aria-hidden="true" viewBox="0 0 32 32"><path fill="#41d1ff" d="M29.884 6.146l-13.142 23.5a.714.714 0 0 1-1.244.005L2.096 6.148a.714.714 0 0 1 .746-1.057l13.156 2.352a.714.714 0 0 0 .253 0l12.881-2.348a.714.714 0 0 1 .752 1.05z"/><path fill="#ffea83" d="M22.264 2.007L12.54 3.912a.357.357 0 0 0-.288.33l-.598 10.104a.357.357 0 0 0 .437.369l2.707-.625a.357.357 0 0 1 .43.42l-.804 3.939a.357.357 0 0 0 .454.413l1.672-.508a.357.357 0 0 1 .454.414l-1.279 6.184c-.08.387.435.598.65.267l.143-.222 7.925-15.815a.357.357 0 0 0-.387-.51l-2.786.537a.357.357 0 0 1-.42-.443l1.818-6.305a.357.357 0 0 0-.404-.451z"/></svg>
